<svg width="60" height="60" viewBox="0 0 60 60" fill="none" xmlns="http://www.w3.org/2000/svg">
<path d="M0 30C0 13.4315 13.4315 0 30 0V0C46.5685 0 60 13.4315 60 30V30C60 46.5685 46.5685 60 30 60V60C13.4315 60 0 46.5685 0 30V30Z" fill="#FF3232"/>
<path d="M40.0004 34.9201V37.9201C40.0016 38.1986 39.9445 38.4743 39.8329 38.7294C39.7214 38.9846 39.5577 39.2137 39.3525 39.402C39.1473 39.5902 38.905 39.7336 38.6412 39.8228C38.3773 39.912 38.0978 39.9452 37.8204 39.9201C34.7433 39.5857 31.7874 38.5342 29.1904 36.8501C26.7742 35.3148 24.7258 33.2663 23.1904 30.8501C21.5004 28.2413 20.4487 25.2711 20.1204 22.1801C20.0954 21.9036 20.1283 21.6249 20.2169 21.3617C20.3055 21.0986 20.448 20.8568 20.6352 20.6517C20.8224 20.4466 21.0502 20.2828 21.3042 20.1706C21.5582 20.0584 21.8328 20.0004 22.1104 20.0001H25.1104C25.5957 19.9953 26.0662 20.1672 26.4342 20.4836C26.8022 20.8001 27.0425 21.2395 27.1104 21.7201C27.237 22.6802 27.4719 23.6228 27.8104 24.5301C27.945 24.888 27.9741 25.277 27.8943 25.651C27.8146 26.0249 27.6293 26.3682 27.3604 26.6401L26.0904 27.9101C27.514 30.4136 29.5869 32.4865 32.0904 33.9101L33.3604 32.6401C33.6323 32.3712 33.9756 32.1859 34.3495 32.1062C34.7235 32.0264 35.1125 32.0556 35.4704 32.1901C36.3777 32.5286 37.3204 32.7635 38.2804 32.8901C38.7662 32.9586 39.2098 33.2033 39.527 33.5776C39.8441 33.9519 40.0126 34.4297 40.0004 34.9201Z" stroke="white" stroke-width="2" stroke-linecap="round" stroke-linejoin="round"/>
</svg>
