<svg width="153" height="66" viewBox="0 0 153 66" fill="none" xmlns="http://www.w3.org/2000/svg">
<path d="M13.44 36.48C12.3467 36.48 11.4267 36.2933 10.68 35.92C9.96 35.5467 9.32 34.92 8.76 34.04C8.22667 33.1333 7.73333 31.8933 7.28 30.32L0.8 8H6.44L12.56 30.24C12.7467 30.9333 13.04 31.28 13.44 31.28C13.84 31.28 14.1333 30.9333 14.32 30.24L20.44 8H26.08L19.6 30.32C19.1467 31.8933 18.64 33.1333 18.08 34.04C17.5467 34.92 16.9067 35.5467 16.16 35.92C15.44 36.2933 14.5333 36.48 13.44 36.48ZM39.3041 36.48C35.5974 36.48 32.7574 35.6267 30.7841 33.92C28.8374 32.1867 27.8641 29.64 27.8641 26.28V17.72C27.8641 14.36 28.8374 11.8267 30.7841 10.12C32.7574 8.38667 35.5974 7.52 39.3041 7.52C43.0107 7.52 45.8374 8.38667 47.7841 10.12C49.7574 11.8267 50.7441 14.36 50.7441 17.72V26.28C50.7441 29.64 49.7574 32.1867 47.7841 33.92C45.8374 35.6267 43.0107 36.48 39.3041 36.48ZM39.3041 32.08C41.1707 32.08 42.5974 31.5867 43.5841 30.6C44.5974 29.5867 45.1041 28.1467 45.1041 26.28V17.72C45.1041 15.8533 44.5974 14.4267 43.5841 13.44C42.5974 12.4267 41.1707 11.92 39.3041 11.92C37.4374 11.92 35.9974 12.4267 34.9841 13.44C33.9974 14.4267 33.5041 15.8533 33.5041 17.72V26.28C33.5041 28.1467 33.9974 29.5867 34.9841 30.6C35.9974 31.5867 37.4374 32.08 39.3041 32.08ZM56.3297 8H61.9697V36H56.3297V8ZM74.5916 12.4H66.1516V8H88.6716V12.4H80.2316V36H74.5916V12.4ZM104.749 29.48H93.7888L91.9088 36H86.2688L93.1088 13.68C93.5888 12.08 94.0954 10.84 94.6288 9.96C95.1621 9.08 95.7888 8.45333 96.5088 8.08C97.2554 7.70667 98.1754 7.52 99.2688 7.52C100.362 7.52 101.269 7.70667 101.989 8.08C102.709 8.45333 103.335 9.08 103.869 9.96C104.429 10.84 104.949 12.08 105.429 13.68L112.269 36H106.629L104.749 29.48ZM103.509 25.28L100.149 13.76C99.9621 13.0667 99.6688 12.72 99.2688 12.72C98.8688 12.72 98.5754 13.0667 98.3888 13.76L95.0288 25.28H103.509ZM116.486 8H122.126V36H116.486V8ZM151.588 36H145.628L143.788 29.8C143.414 28.52 143.041 27.5333 142.668 26.84C142.294 26.12 141.788 25.5733 141.148 25.2C140.508 24.8267 139.654 24.64 138.588 24.64H134.548V36H128.908V8H140.228C143.641 8 146.161 8.68 147.788 10.04C149.414 11.3733 150.228 13.4667 150.228 16.32C150.228 18.16 149.734 19.64 148.748 20.76C147.788 21.88 146.454 22.6 144.748 22.92C146.108 23.3733 147.134 24.16 147.828 25.28C148.521 26.4 149.161 27.92 149.748 29.84L151.588 36ZM140.388 20.24C141.614 20.24 142.614 19.92 143.388 19.28C144.188 18.6133 144.588 17.6267 144.588 16.32C144.588 15.0133 144.188 14.04 143.388 13.4C142.614 12.7333 141.614 12.4 140.388 12.4H134.548V20.24H140.388Z" fill="white"/>
<path d="M3.942 61.198C3.234 61.198 2.628 61.084 2.124 60.856C1.632 60.628 1.182 60.256 0.774 59.74L1.548 59.074C1.92 59.494 2.286 59.794 2.646 59.974C3.006 60.142 3.438 60.226 3.942 60.226C4.662 60.226 5.208 60.1 5.58 59.848C5.952 59.596 6.138 59.23 6.138 58.75C6.138 58.45 6.066 58.21 5.922 58.03C5.778 57.85 5.526 57.694 5.166 57.562C4.806 57.43 4.26 57.298 3.528 57.166C1.848 56.866 1.008 56.062 1.008 54.754C1.008 53.998 1.278 53.41 1.818 52.99C2.37 52.558 3.126 52.342 4.086 52.342C4.77 52.342 5.364 52.462 5.868 52.702C6.384 52.93 6.774 53.266 7.038 53.71L6.264 54.358C5.988 53.998 5.67 53.734 5.31 53.566C4.962 53.398 4.554 53.314 4.086 53.314C3.486 53.314 3.012 53.44 2.664 53.692C2.328 53.944 2.16 54.292 2.16 54.736C2.16 55.132 2.298 55.438 2.574 55.654C2.862 55.87 3.36 56.05 4.068 56.194C4.896 56.374 5.538 56.572 5.994 56.788C6.462 56.992 6.792 57.25 6.984 57.562C7.188 57.874 7.29 58.27 7.29 58.75C7.29 59.554 7.002 60.166 6.426 60.586C5.862 60.994 5.034 61.198 3.942 61.198ZM16.4049 61.198C15.2289 61.198 14.3229 60.928 13.6869 60.388C13.0509 59.848 12.7329 59.068 12.7329 58.048V55.492C12.7329 54.496 13.0569 53.722 13.7049 53.17C14.3529 52.618 15.2589 52.342 16.4229 52.342C17.1309 52.342 17.7429 52.456 18.2589 52.684C18.7749 52.912 19.2189 53.26 19.5909 53.728L18.7629 54.43C18.4269 54.022 18.0789 53.734 17.7189 53.566C17.3589 53.398 16.9269 53.314 16.4229 53.314C15.6429 53.314 15.0309 53.506 14.5869 53.89C14.1549 54.274 13.9389 54.808 13.9389 55.492V58.048C13.9389 58.744 14.1489 59.284 14.5689 59.668C15.0009 60.04 15.6129 60.226 16.4049 60.226C16.9449 60.226 17.4129 60.136 17.8089 59.956C18.2049 59.776 18.5409 59.5 18.8169 59.128L19.6449 59.83C19.2969 60.298 18.8589 60.646 18.3309 60.874C17.8029 61.09 17.1609 61.198 16.4049 61.198ZM28.7622 60.226C29.2782 60.226 29.7342 60.148 30.1302 59.992C30.5262 59.836 30.8922 59.584 31.2282 59.236L31.9842 59.938C31.6002 60.37 31.1442 60.688 30.6162 60.892C30.0882 61.096 29.4462 61.198 28.6902 61.198C27.5382 61.198 26.6382 60.928 25.9902 60.388C25.3542 59.836 25.0362 59.068 25.0362 58.084V55.348C25.0362 54.424 25.3482 53.698 25.9722 53.17C26.6082 52.63 27.4782 52.36 28.5822 52.36C29.7102 52.36 30.5742 52.642 31.1742 53.206C31.7862 53.77 32.0922 54.568 32.0922 55.6C32.0922 56.26 31.9662 56.716 31.7142 56.968C31.4742 57.208 31.0182 57.328 30.3462 57.328H26.2422V58.084C26.2422 58.804 26.4462 59.344 26.8542 59.704C27.2742 60.052 27.9102 60.226 28.7622 60.226ZM28.5642 53.314C27.8442 53.314 27.2742 53.506 26.8542 53.89C26.4462 54.262 26.2422 54.772 26.2422 55.42V56.446H29.8422C30.2502 56.446 30.5262 56.38 30.6702 56.248C30.8142 56.104 30.8862 55.84 30.8862 55.456C30.8862 54.784 30.6822 54.262 30.2742 53.89C29.8662 53.506 29.2962 53.314 28.5642 53.314ZM42.2475 52.342C43.0995 52.342 43.7655 52.6 44.2455 53.116C44.7255 53.62 44.9655 54.322 44.9655 55.222V61H43.7595V55.402C43.7595 54.742 43.5975 54.232 43.2735 53.872C42.9615 53.5 42.5235 53.314 41.9595 53.314C41.3115 53.314 40.7475 53.554 40.2675 54.034C39.7995 54.514 39.4635 55.168 39.2595 55.996V61H38.0535V54.07C38.0535 53.854 38.0115 53.68 37.9275 53.548C37.8555 53.404 37.7115 53.242 37.4955 53.062L38.2875 52.342C38.6595 52.546 38.9115 52.78 39.0435 53.044C39.1875 53.296 39.2595 53.65 39.2595 54.106V54.268C39.5595 53.644 39.9615 53.17 40.4655 52.846C40.9815 52.51 41.5755 52.342 42.2475 52.342ZM52.4924 53.512V58.552C52.4924 59.62 52.9604 60.154 53.8964 60.154H54.9224V61.108H53.8964C52.9964 61.108 52.3364 60.904 51.9164 60.496C51.4964 60.076 51.2864 59.428 51.2864 58.552V50.578C51.2864 50.362 51.2444 50.188 51.1604 50.056C51.0884 49.912 50.9444 49.75 50.7284 49.57L51.5384 48.85C51.8984 49.054 52.1444 49.288 52.2764 49.552C52.4204 49.804 52.4924 50.158 52.4924 50.614V52.54H54.9224V53.512H52.4924ZM71.4336 61.198C70.7256 61.198 70.1196 61.084 69.6156 60.856C69.1236 60.628 68.6736 60.256 68.2656 59.74L69.0396 59.074C69.4116 59.494 69.7776 59.794 70.1376 59.974C70.4976 60.142 70.9296 60.226 71.4336 60.226C72.1536 60.226 72.6996 60.1 73.0716 59.848C73.4436 59.596 73.6296 59.23 73.6296 58.75C73.6296 58.45 73.5576 58.21 73.4136 58.03C73.2696 57.85 73.0176 57.694 72.6576 57.562C72.2976 57.43 71.7516 57.298 71.0196 57.166C69.3396 56.866 68.4996 56.062 68.4996 54.754C68.4996 53.998 68.7696 53.41 69.3096 52.99C69.8616 52.558 70.6176 52.342 71.5776 52.342C72.2616 52.342 72.8556 52.462 73.3596 52.702C73.8756 52.93 74.2656 53.266 74.5296 53.71L73.7556 54.358C73.4796 53.998 73.1616 53.734 72.8016 53.566C72.4536 53.398 72.0456 53.314 71.5776 53.314C70.9776 53.314 70.5036 53.44 70.1556 53.692C69.8196 53.944 69.6516 54.292 69.6516 54.736C69.6516 55.132 69.7896 55.438 70.0656 55.654C70.3536 55.87 70.8516 56.05 71.5596 56.194C72.3876 56.374 73.0296 56.572 73.4856 56.788C73.9536 56.992 74.2836 57.25 74.4756 57.562C74.6796 57.874 74.7816 58.27 74.7816 58.75C74.7816 59.554 74.4936 60.166 73.9176 60.586C73.3536 60.994 72.5256 61.198 71.4336 61.198ZM87.6923 52.54V62.116C87.6923 63.112 87.4283 63.85 86.9003 64.33C86.3723 64.822 85.5743 65.068 84.5063 65.068H82.3283V64.114H84.5063C85.8263 64.114 86.4863 63.442 86.4863 62.098V59.56C85.8983 60.652 84.9263 61.198 83.5703 61.198C82.6703 61.198 81.9623 60.934 81.4463 60.406C80.9423 59.866 80.6903 59.134 80.6903 58.21V54.088C80.6903 53.872 80.6483 53.698 80.5643 53.566C80.4923 53.422 80.3483 53.26 80.1323 53.08L80.9423 52.36C81.3023 52.564 81.5483 52.798 81.6803 53.062C81.8243 53.314 81.8963 53.668 81.8963 54.124V58.12C81.8963 58.792 82.0643 59.314 82.4003 59.686C82.7483 60.046 83.2343 60.226 83.8583 60.226C84.5663 60.226 85.1663 59.986 85.6583 59.506C86.1503 59.014 86.4263 58.396 86.4863 57.652V52.54H87.6923ZM96.4444 61.198C95.7364 61.198 95.1304 61.084 94.6264 60.856C94.1344 60.628 93.6844 60.256 93.2764 59.74L94.0504 59.074C94.4224 59.494 94.7884 59.794 95.1484 59.974C95.5084 60.142 95.9404 60.226 96.4444 60.226C97.1644 60.226 97.7104 60.1 98.0824 59.848C98.4544 59.596 98.6404 59.23 98.6404 58.75C98.6404 58.45 98.5684 58.21 98.4244 58.03C98.2804 57.85 98.0284 57.694 97.6684 57.562C97.3084 57.43 96.7624 57.298 96.0304 57.166C94.3504 56.866 93.5104 56.062 93.5104 54.754C93.5104 53.998 93.7804 53.41 94.3204 52.99C94.8724 52.558 95.6284 52.342 96.5884 52.342C97.2724 52.342 97.8664 52.462 98.3704 52.702C98.8864 52.93 99.2764 53.266 99.5404 53.71L98.7664 54.358C98.4904 53.998 98.1724 53.734 97.8124 53.566C97.4644 53.398 97.0564 53.314 96.5884 53.314C95.9884 53.314 95.5144 53.44 95.1664 53.692C94.8304 53.944 94.6624 54.292 94.6624 54.736C94.6624 55.132 94.8004 55.438 95.0764 55.654C95.3644 55.87 95.8624 56.05 96.5704 56.194C97.3984 56.374 98.0404 56.572 98.4964 56.788C98.9644 56.992 99.2944 57.25 99.4864 57.562C99.6904 57.874 99.7924 58.27 99.7924 58.75C99.7924 59.554 99.5044 60.166 98.9284 60.586C98.3644 60.994 97.5364 61.198 96.4444 61.198ZM106.819 53.512V58.552C106.819 59.62 107.287 60.154 108.223 60.154H109.249V61.108H108.223C107.323 61.108 106.663 60.904 106.243 60.496C105.823 60.076 105.613 59.428 105.613 58.552V50.578C105.613 50.362 105.571 50.188 105.487 50.056C105.415 49.912 105.271 49.75 105.055 49.57L105.865 48.85C106.225 49.054 106.471 49.288 106.603 49.552C106.747 49.804 106.819 50.158 106.819 50.614V52.54H109.249V53.512H106.819ZM118.382 60.226C118.898 60.226 119.354 60.148 119.75 59.992C120.146 59.836 120.512 59.584 120.848 59.236L121.604 59.938C121.22 60.37 120.764 60.688 120.236 60.892C119.708 61.096 119.066 61.198 118.31 61.198C117.158 61.198 116.258 60.928 115.61 60.388C114.974 59.836 114.656 59.068 114.656 58.084V55.348C114.656 54.424 114.968 53.698 115.592 53.17C116.228 52.63 117.098 52.36 118.202 52.36C119.33 52.36 120.194 52.642 120.794 53.206C121.406 53.77 121.712 54.568 121.712 55.6C121.712 56.26 121.586 56.716 121.334 56.968C121.094 57.208 120.638 57.328 119.966 57.328H115.862V58.084C115.862 58.804 116.066 59.344 116.474 59.704C116.894 60.052 117.53 60.226 118.382 60.226ZM118.184 53.314C117.464 53.314 116.894 53.506 116.474 53.89C116.066 54.262 115.862 54.772 115.862 55.42V56.446H119.462C119.87 56.446 120.146 56.38 120.29 56.248C120.434 56.104 120.506 55.84 120.506 55.456C120.506 54.784 120.302 54.262 119.894 53.89C119.486 53.506 118.916 53.314 118.184 53.314ZM137.123 52.342C137.927 52.342 138.551 52.594 138.995 53.098C139.439 53.602 139.661 54.31 139.661 55.222V61H138.455V55.402C138.455 54.73 138.311 54.214 138.023 53.854C137.735 53.494 137.327 53.314 136.799 53.314C136.199 53.314 135.665 53.566 135.197 54.07C134.741 54.562 134.429 55.228 134.261 56.068V61H133.055V55.402C133.055 54.73 132.911 54.214 132.623 53.854C132.347 53.494 131.945 53.314 131.417 53.314C130.817 53.314 130.283 53.572 129.815 54.088C129.347 54.592 129.035 55.252 128.879 56.068V61H127.673V54.07C127.673 53.854 127.631 53.68 127.547 53.548C127.475 53.404 127.331 53.242 127.115 53.062L127.907 52.342C128.243 52.522 128.483 52.744 128.627 53.008C128.783 53.272 128.861 53.602 128.861 53.998V54.286C129.149 53.662 129.539 53.182 130.031 52.846C130.535 52.51 131.105 52.342 131.741 52.342C132.413 52.342 132.959 52.528 133.379 52.9C133.799 53.272 134.063 53.812 134.171 54.52C134.375 53.848 134.747 53.32 135.287 52.936C135.827 52.54 136.439 52.342 137.123 52.342ZM148.646 61.198C147.938 61.198 147.332 61.084 146.828 60.856C146.336 60.628 145.886 60.256 145.478 59.74L146.252 59.074C146.624 59.494 146.99 59.794 147.35 59.974C147.71 60.142 148.142 60.226 148.646 60.226C149.366 60.226 149.912 60.1 150.284 59.848C150.656 59.596 150.842 59.23 150.842 58.75C150.842 58.45 150.77 58.21 150.626 58.03C150.482 57.85 150.23 57.694 149.87 57.562C149.51 57.43 148.964 57.298 148.232 57.166C146.552 56.866 145.712 56.062 145.712 54.754C145.712 53.998 145.982 53.41 146.522 52.99C147.074 52.558 147.83 52.342 148.79 52.342C149.474 52.342 150.068 52.462 150.572 52.702C151.088 52.93 151.478 53.266 151.742 53.71L150.968 54.358C150.692 53.998 150.374 53.734 150.014 53.566C149.666 53.398 149.258 53.314 148.79 53.314C148.19 53.314 147.716 53.44 147.368 53.692C147.032 53.944 146.864 54.292 146.864 54.736C146.864 55.132 147.002 55.438 147.278 55.654C147.566 55.87 148.064 56.05 148.772 56.194C149.6 56.374 150.242 56.572 150.698 56.788C151.166 56.992 151.496 57.25 151.688 57.562C151.892 57.874 151.994 58.27 151.994 58.75C151.994 59.554 151.706 60.166 151.13 60.586C150.566 60.994 149.738 61.198 148.646 61.198Z" fill="white"/>
<line x1="2" y1="41" x2="151" y2="41" stroke="#FF3232" stroke-width="2" stroke-linecap="round"/>
</svg>
